<svg width="104" height="115" viewBox="0 0 104 115" fill="none" xmlns="http://www.w3.org/2000/svg">
<g filter="url(#filter0_di_678_9895)">
<rect x="14.4448" y="14.5312" width="74.6316" height="85.99" rx="37.3158" fill="url(#paint0_radial_678_9895)"/>
<rect x="14.4448" y="14.5312" width="74.6316" height="85.99" rx="37.3158" fill="url(#paint1_radial_678_9895)" fill-opacity="0.4" style="mix-blend-mode:overlay"/>
</g>
<g clip-path="url(#clip0_678_9895)">
<mask id="mask0_678_9895" style="mask-type:alpha" maskUnits="userSpaceOnUse" x="24" y="31" width="27" height="23">
<path d="M50.583 53.7998C47.5632 49.9701 42.8815 47.5119 37.626 47.5117C32.3702 47.5117 27.6878 49.97 24.668 53.7998V31.6113H34.0322C35.5604 32.3637 37.2792 32.7881 39.0977 32.7881C40.9161 32.7881 42.6349 32.3637 44.1631 31.6113H50.583V53.7998Z" fill="white"/>
</mask>
<g mask="url(#mask0_678_9895)">
<g filter="url(#filter1_i_678_9895)">
<circle cx="39.0978" cy="46.0396" r="11.485" fill="url(#paint2_radial_678_9895)"/>
</g>
<circle cx="39.4317" cy="46.6343" r="5.59524" fill="#29262A"/>
<g style="mix-blend-mode:color-dodge">
<circle cx="35.6033" cy="42.806" r="1.76692" fill="#D9D9D9"/>
</g>
</g>
</g>
<path d="M32.9137 49.2807C31.3338 49.7734 29.8849 50.5055 29.1009 50.979C28.8327 51.1411 28.4593 51.0422 28.3328 50.7555C28.2539 50.5766 28.293 50.3675 28.4312 50.2293L28.7783 49.8821C28.7865 49.8739 28.7958 49.8669 28.806 49.8614L30.2011 49.1103C31.7882 48.2556 33.5668 47.8247 35.3552 47.5985C36.1476 47.4983 36.9551 47.3712 37.6884 47.2377C39.2925 46.9456 40.8504 47.8377 42.4761 47.9614C42.889 47.9928 43.4789 48.0192 44.3984 48.1028C47.6377 48.3973 47.8837 47.8339 49.1102 49.2807C49.3295 49.5394 49.5267 49.9121 49.6789 50.2486C49.8961 50.7289 49.7588 51.2825 49.3861 51.6552C48.8907 52.1506 48.1082 52.1993 47.5305 51.803C44.343 49.6164 41.416 48.7746 38.5089 48.6918C35.507 48.6062 34.8816 48.667 32.9137 49.2807Z" fill="#9EEDF0"/>
<path d="M32.9137 49.2807C31.3338 49.7734 29.8849 50.5055 29.1009 50.979C28.8327 51.1411 28.4593 51.0422 28.3328 50.7555C28.2539 50.5766 28.293 50.3675 28.4312 50.2293L28.7783 49.8821C28.7865 49.8739 28.7958 49.8669 28.806 49.8614L30.2011 49.1103C31.7882 48.2556 33.5668 47.8247 35.3552 47.5985C36.1476 47.4983 36.9551 47.3712 37.6884 47.2377C39.2925 46.9456 40.8504 47.8377 42.4761 47.9614C42.889 47.9928 43.4789 48.0192 44.3984 48.1028C47.6377 48.3973 47.8837 47.8339 49.1102 49.2807C49.3295 49.5394 49.5267 49.9121 49.6789 50.2486C49.8961 50.7289 49.7588 51.2825 49.3861 51.6552C48.8907 52.1506 48.1082 52.1993 47.5305 51.803C44.343 49.6164 41.416 48.7746 38.5089 48.6918C35.507 48.6062 34.8816 48.667 32.9137 49.2807Z" fill="url(#paint3_radial_678_9895)" fill-opacity="0.2"/>
<g clip-path="url(#clip1_678_9895)">
<mask id="mask1_678_9895" style="mask-type:alpha" maskUnits="userSpaceOnUse" x="52" y="31" width="27" height="23">
<path d="M78.8535 53.7998C75.8337 49.9701 71.152 47.5119 65.8965 47.5117C60.6408 47.5117 55.9583 49.97 52.9385 53.7998V31.6113H62.3027C63.8309 32.3637 65.5497 32.7881 67.3682 32.7881C69.1866 32.7881 70.9054 32.3637 72.4336 31.6113H78.8535V53.7998Z" fill="white"/>
</mask>
<g mask="url(#mask1_678_9895)">
<g filter="url(#filter2_i_678_9895)">
<circle cx="64.4234" cy="46.0396" r="11.485" fill="url(#paint4_radial_678_9895)"/>
</g>
<circle cx="63.856" cy="46.0503" r="5.59524" fill="#29262A"/>
<g style="mix-blend-mode:color-dodge">
<circle cx="60.0277" cy="42.222" r="1.76692" fill="#D9D9D9"/>
</g>
</g>
</g>
<path d="M70.6078 49.2807C72.1877 49.7734 73.6365 50.5055 74.4206 50.979C74.6888 51.1411 75.0622 51.0422 75.1887 50.7555C75.2676 50.5766 75.2285 50.3675 75.0902 50.2293L74.7432 49.8821C74.735 49.8739 74.7257 49.8669 74.7155 49.8614L73.3204 49.1103C71.7333 48.2556 69.9546 47.8247 68.1663 47.5985C67.3739 47.4983 66.5664 47.3712 65.8331 47.2377C64.229 46.9456 62.5167 47.5264 60.9174 47.8434C60.1913 47.9873 59.5758 47.9519 59.1231 48.1028C58.2396 48.3973 56.7672 48.3973 55.2948 49.5752C54.9372 49.8613 54.4853 50.4304 54.1771 50.8456C53.9594 51.1389 53.9694 51.5382 54.1885 51.8304C54.4736 52.2105 55.0129 52.284 55.4019 52.0111C58.739 49.6696 62.0151 48.7772 65.0126 48.6918C68.0145 48.6062 68.6399 48.667 70.6078 49.2807Z" fill="#9EEDF0"/>
<path d="M70.6078 49.2807C72.1877 49.7734 73.6365 50.5055 74.4206 50.979C74.6888 51.1411 75.0622 51.0422 75.1887 50.7555C75.2676 50.5766 75.2285 50.3675 75.0902 50.2293L74.7432 49.8821C74.735 49.8739 74.7257 49.8669 74.7155 49.8614L73.3204 49.1103C71.7333 48.2556 69.9546 47.8247 68.1663 47.5985C67.3739 47.4983 66.5664 47.3712 65.8331 47.2377C64.229 46.9456 62.5167 47.5264 60.9174 47.8434C60.1913 47.9873 59.5758 47.9519 59.1231 48.1028C58.2396 48.3973 56.7672 48.3973 55.2948 49.5752C54.9372 49.8613 54.4853 50.4304 54.1771 50.8456C53.9594 51.1389 53.9694 51.5382 54.1885 51.8304C54.4736 52.2105 55.0129 52.284 55.4019 52.0111C58.739 49.6696 62.0151 48.7772 65.0126 48.6918C68.0145 48.6062 68.6399 48.667 70.6078 49.2807Z" fill="url(#paint5_radial_678_9895)" fill-opacity="0.2"/>
<g filter="url(#filter3_f_678_9895)">
<circle cx="29.3797" cy="57.5267" r="7.06767" fill="#8DAAFF"/>
</g>
<g filter="url(#filter4_f_678_9895)">
<circle cx="74.1414" cy="57.5267" r="7.06767" fill="#8DAAFF"/>
</g>
<g opacity="0.3">
<g filter="url(#filter5_f_678_9895)">
<circle cx="72.3747" cy="53.9924" r="1.17794" fill="white"/>
</g>
<g filter="url(#filter6_f_678_9895)">
<circle cx="77.0866" cy="56.9358" r="1.17794" fill="white"/>
</g>
<g filter="url(#filter7_f_678_9895)">
<circle cx="73.5525" cy="60.4709" r="1.17794" fill="white"/>
</g>
</g>
<g opacity="0.3">
<g filter="url(#filter8_f_678_9895)">
<circle cx="31.1462" cy="53.9924" r="1.17794" fill="white"/>
</g>
<g filter="url(#filter9_f_678_9895)">
<circle cx="26.4343" cy="56.9358" r="1.17794" fill="white"/>
</g>
<g filter="url(#filter10_f_678_9895)">
<circle cx="30.5573" cy="60.4709" r="1.17794" fill="white"/>
</g>
</g>
<mask id="mask2_678_9895" style="mask-type:alpha" maskUnits="userSpaceOnUse" x="33" y="59" width="37" height="19">
<path d="M69.9953 77.2592L33.2387 77.2592C34.4639 60.5146 41.6686 60.4628 52.1274 59.3915C68.2586 60.4627 68.6339 71.2182 69.9953 77.2592Z" fill="#29262A"/>
</mask>
<g mask="url(#mask2_678_9895)">
<path d="M70.3424 77.2592L33.5859 77.2592C34.8111 60.5146 42.0158 60.4628 52.4746 59.3915C68.6058 60.4627 68.9811 71.2182 70.3424 77.2592Z" fill="#29262A"/>
<path d="M70.7174 78.7378L32.7821 78.6518C34.0075 61.9072 41.4431 61.8723 52.2348 60.8251C68.8857 61.9343 69.2982 72.6925 70.7174 78.7378Z" fill="url(#paint6_linear_678_9895)"/>
</g>
<path d="M28.6806 29.0859C28.6806 29.0859 37.1383 31.8731 43.5117 21.3371C43.5117 21.3371 43.0349 23.5523 41.3392 26.0115C38.7665 29.7427 34.5119 31.4802 31.163 30.3805C30.3381 30.1453 29.4833 29.7227 28.6806 29.0859Z" fill="#29262A"/>
<path d="M75.2304 27.9458C75.2304 27.9458 67.1853 31.7636 59.5506 22.1024C59.5506 22.1024 60.2993 24.2411 62.2878 26.4702C65.3047 29.8524 69.7424 31.047 72.9285 29.5392C73.7177 29.2032 74.5133 28.6776 75.2304 27.9458Z" fill="#29262A"/>
<defs>
<filter id="filter0_di_678_9895" x="0.309512" y="0.395938" width="102.902" height="114.261" filterUnits="userSpaceOnUse" color-interpolation-filters="sRGB">
<feFlood flood-opacity="0" result="BackgroundImageFix"/>
<feColorMatrix in="SourceAlpha" type="matrix" values="0 0 0 0 0 0 0 0 0 0 0 0 0 0 0 0 0 0 127 0" result="hardAlpha"/>
<feOffset/>
<feGaussianBlur stdDeviation="7.06766"/>
<feComposite in2="hardAlpha" operator="out"/>
<feColorMatrix type="matrix" values="0 0 0 0 0.207843 0 0 0 0 0.419608 0 0 0 0 0.980392 0 0 0 0.5 0"/>
<feBlend mode="normal" in2="BackgroundImageFix" result="effect1_dropShadow_678_9895"/>
<feBlend mode="normal" in="SourceGraphic" in2="effect1_dropShadow_678_9895" result="shape"/>
<feColorMatrix in="SourceAlpha" type="matrix" values="0 0 0 0 0 0 0 0 0 0 0 0 0 0 0 0 0 0 127 0" result="hardAlpha"/>
<feOffset dx="-5.88971" dy="-5.88971"/>
<feGaussianBlur stdDeviation="3.53383"/>
<feComposite in2="hardAlpha" operator="arithmetic" k2="-1" k3="1"/>
<feColorMatrix type="matrix" values="0 0 0 0 0.180392 0 0 0 0 0.164706 0 0 0 0 0.168627 0 0 0 1 0"/>
<feBlend mode="soft-light" in2="shape" result="effect2_innerShadow_678_9895"/>
</filter>
<filter id="filter1_i_678_9895" x="27.6128" y="32.1988" width="24.1479" height="25.3258" filterUnits="userSpaceOnUse" color-interpolation-filters="sRGB">
<feFlood flood-opacity="0" result="BackgroundImageFix"/>
<feBlend mode="normal" in="SourceGraphic" in2="BackgroundImageFix" result="shape"/>
<feColorMatrix in="SourceAlpha" type="matrix" values="0 0 0 0 0 0 0 0 0 0 0 0 0 0 0 0 0 0 127 0" result="hardAlpha"/>
<feOffset dx="1.17794" dy="-2.35589"/>
<feGaussianBlur stdDeviation="1.17794"/>
<feComposite in2="hardAlpha" operator="arithmetic" k2="-1" k3="1"/>
<feColorMatrix type="matrix" values="0 0 0 0 0 0 0 0 0 0 0 0 0 0 0 0 0 0 0.1 0"/>
<feBlend mode="normal" in2="shape" result="effect1_innerShadow_678_9895"/>
</filter>
<filter id="filter2_i_678_9895" x="51.7605" y="32.1988" width="24.1479" height="25.3258" filterUnits="userSpaceOnUse" color-interpolation-filters="sRGB">
<feFlood flood-opacity="0" result="BackgroundImageFix"/>
<feBlend mode="normal" in="SourceGraphic" in2="BackgroundImageFix" result="shape"/>
<feColorMatrix in="SourceAlpha" type="matrix" values="0 0 0 0 0 0 0 0 0 0 0 0 0 0 0 0 0 0 127 0" result="hardAlpha"/>
<feOffset dx="-1.17794" dy="-2.35589"/>
<feGaussianBlur stdDeviation="1.17794"/>
<feComposite in2="hardAlpha" operator="arithmetic" k2="-1" k3="1"/>
<feColorMatrix type="matrix" values="0 0 0 0 0 0 0 0 0 0 0 0 0 0 0 0 0 0 0.1 0"/>
<feBlend mode="normal" in2="shape" result="effect1_innerShadow_678_9895"/>
</filter>
<filter id="filter3_f_678_9895" x="15.2444" y="43.3913" width="28.2706" height="28.2706" filterUnits="userSpaceOnUse" color-interpolation-filters="sRGB">
<feFlood flood-opacity="0" result="BackgroundImageFix"/>
<feBlend mode="normal" in="SourceGraphic" in2="BackgroundImageFix" result="shape"/>
<feGaussianBlur stdDeviation="3.53383" result="effect1_foregroundBlur_678_9895"/>
</filter>
<filter id="filter4_f_678_9895" x="60.0061" y="43.3913" width="28.2706" height="28.2706" filterUnits="userSpaceOnUse" color-interpolation-filters="sRGB">
<feFlood flood-opacity="0" result="BackgroundImageFix"/>
<feBlend mode="normal" in="SourceGraphic" in2="BackgroundImageFix" result="shape"/>
<feGaussianBlur stdDeviation="3.53383" result="effect1_foregroundBlur_678_9895"/>
</filter>
<filter id="filter5_f_678_9895" x="70.0188" y="51.6365" width="4.71184" height="4.71178" filterUnits="userSpaceOnUse" color-interpolation-filters="sRGB">
<feFlood flood-opacity="0" result="BackgroundImageFix"/>
<feBlend mode="normal" in="SourceGraphic" in2="BackgroundImageFix" result="shape"/>
<feGaussianBlur stdDeviation="0.588971" result="effect1_foregroundBlur_678_9895"/>
</filter>
<filter id="filter6_f_678_9895" x="74.7307" y="54.5799" width="4.71184" height="4.71178" filterUnits="userSpaceOnUse" color-interpolation-filters="sRGB">
<feFlood flood-opacity="0" result="BackgroundImageFix"/>
<feBlend mode="normal" in="SourceGraphic" in2="BackgroundImageFix" result="shape"/>
<feGaussianBlur stdDeviation="0.588971" result="effect1_foregroundBlur_678_9895"/>
</filter>
<filter id="filter7_f_678_9895" x="71.1966" y="58.115" width="4.71184" height="4.71178" filterUnits="userSpaceOnUse" color-interpolation-filters="sRGB">
<feFlood flood-opacity="0" result="BackgroundImageFix"/>
<feBlend mode="normal" in="SourceGraphic" in2="BackgroundImageFix" result="shape"/>
<feGaussianBlur stdDeviation="0.588971" result="effect1_foregroundBlur_678_9895"/>
</filter>
<filter id="filter8_f_678_9895" x="28.7903" y="51.6365" width="4.71184" height="4.71178" filterUnits="userSpaceOnUse" color-interpolation-filters="sRGB">
<feFlood flood-opacity="0" result="BackgroundImageFix"/>
<feBlend mode="normal" in="SourceGraphic" in2="BackgroundImageFix" result="shape"/>
<feGaussianBlur stdDeviation="0.588971" result="effect1_foregroundBlur_678_9895"/>
</filter>
<filter id="filter9_f_678_9895" x="24.0784" y="54.5799" width="4.71184" height="4.71178" filterUnits="userSpaceOnUse" color-interpolation-filters="sRGB">
<feFlood flood-opacity="0" result="BackgroundImageFix"/>
<feBlend mode="normal" in="SourceGraphic" in2="BackgroundImageFix" result="shape"/>
<feGaussianBlur stdDeviation="0.588971" result="effect1_foregroundBlur_678_9895"/>
</filter>
<filter id="filter10_f_678_9895" x="28.2015" y="58.115" width="4.71184" height="4.71178" filterUnits="userSpaceOnUse" color-interpolation-filters="sRGB">
<feFlood flood-opacity="0" result="BackgroundImageFix"/>
<feBlend mode="normal" in="SourceGraphic" in2="BackgroundImageFix" result="shape"/>
<feGaussianBlur stdDeviation="0.588971" result="effect1_foregroundBlur_678_9895"/>
</filter>
<radialGradient id="paint0_radial_678_9895" cx="0" cy="0" r="1" gradientUnits="userSpaceOnUse" gradientTransform="translate(51.7606 57.5262) rotate(90) scale(42.995 37.3158)">
<stop stop-color="#4373FE"/>
<stop offset="1" stop-color="#356BFA"/>
</radialGradient>
<radialGradient id="paint1_radial_678_9895" cx="0" cy="0" r="1" gradientUnits="userSpaceOnUse" gradientTransform="translate(51.7606 100.521) rotate(90) scale(11.943 10.3655)">
<stop stop-color="#300303" stop-opacity="0.916667"/>
<stop offset="1" stop-color="#E07676" stop-opacity="0"/>
</radialGradient>
<radialGradient id="paint2_radial_678_9895" cx="0" cy="0" r="1" gradientUnits="userSpaceOnUse" gradientTransform="translate(39.0978 46.0396) rotate(90) scale(11.485)">
<stop offset="0.71875" stop-color="white"/>
<stop offset="1" stop-color="#DEF7FF"/>
</radialGradient>
<radialGradient id="paint3_radial_678_9895" cx="0" cy="0" r="1" gradientUnits="userSpaceOnUse" gradientTransform="translate(49.1102 51.6366) rotate(-139.399) scale(5.43006 20.2591)">
<stop stop-color="#00A0A6"/>
<stop offset="1" stop-opacity="0"/>
</radialGradient>
<radialGradient id="paint4_radial_678_9895" cx="0" cy="0" r="1" gradientUnits="userSpaceOnUse" gradientTransform="translate(64.4234 46.0396) rotate(90) scale(11.485)">
<stop offset="0.71875" stop-color="white"/>
<stop offset="1" stop-color="#DEF7FF"/>
</radialGradient>
<radialGradient id="paint5_radial_678_9895" cx="0" cy="0" r="1" gradientUnits="userSpaceOnUse" gradientTransform="translate(54.6641 51.6115) rotate(-40.9305) scale(5.38584 20.1775)">
<stop stop-color="#00A0A6"/>
<stop offset="1" stop-opacity="0"/>
</radialGradient>
<linearGradient id="paint6_linear_678_9895" x1="53.0484" y1="60.8837" x2="51.6526" y2="80.0277" gradientUnits="userSpaceOnUse">
<stop stop-color="#3C6FFC"/>
<stop offset="1" stop-color="#3A6DFB"/>
</linearGradient>
<clipPath id="clip0_678_9895">
<rect width="25.9148" height="25.9148" fill="white" transform="translate(24.668 31.6113)"/>
</clipPath>
<clipPath id="clip1_678_9895">
<rect width="25.9148" height="25.9148" fill="white" transform="translate(52.9385 31.6113)"/>
</clipPath>
</defs>
</svg>
