<svg width="119" height="119" viewBox="0 0 119 119" fill="none" xmlns="http://www.w3.org/2000/svg">
<g filter="url(#filter0_dii_678_4606)">
<rect x="16.2681" y="16.1768" width="86.7008" height="86.7008" rx="43.3504" fill="url(#paint0_radial_678_4606)"/>
</g>
<mask id="mask0_678_4606" style="mask-type:alpha" maskUnits="userSpaceOnUse" x="29" y="31" width="30" height="29">
<path d="M58.3245 59.5264H29.8557V31.0576H58.3245V59.5264Z" fill="white"/>
</mask>
<g mask="url(#mask0_678_4606)">
<g filter="url(#filter1_i_678_4606)">
<circle cx="45.708" cy="46.9109" r="12.6169" fill="url(#paint1_radial_678_4606)"/>
</g>
<g style="mix-blend-mode:color-dodge">
<circle cx="39.5612" cy="43.9967" r="1.94106" fill="#D9D9D9"/>
</g>
<circle cx="47.7478" cy="48.9333" r="4.99483" fill="#29262A"/>
<g filter="url(#filter2_i_678_4606)">
<path d="M58.2449 48.321C58.4345 46.6431 58.2842 44.9443 57.803 43.3253C57.3218 41.7063 56.5195 40.2001 55.4435 38.8958C54.3675 37.5916 53.0398 36.5158 51.5391 35.7324C50.0383 34.9489 48.395 34.4736 46.7066 34.3348C45.0182 34.1959 43.3189 34.3962 41.7096 34.9238C40.1002 35.4514 38.6135 36.2956 37.3376 37.4064C36.0616 38.5172 35.0223 39.8719 34.2813 41.3903C33.5402 42.9088 33.1126 44.56 33.0236 46.2462L45.6653 46.9089L58.2449 48.321Z" fill="url(#paint2_radial_678_4606)"/>
</g>
<path d="M41.8196 47.7491L42.262 50.5393L45.1575 48.2354L41.8196 47.7491Z" fill="#FEFEFF"/>
</g>
<mask id="mask1_678_4606" style="mask-type:alpha" maskUnits="userSpaceOnUse" x="60" y="31" width="30" height="29">
<path d="M89.3816 59.5264H60.9128V31.0576H71.4744C72.7301 31.4766 74.0738 31.7031 75.4705 31.7031C76.867 31.7031 78.2108 31.4766 79.4666 31.0576H89.3816V59.5264Z" fill="white"/>
</mask>
<g mask="url(#mask1_678_4606)">
<g filter="url(#filter3_i_678_4606)">
<circle cx="73.5298" cy="46.9109" r="12.6169" fill="url(#paint3_radial_678_4606)"/>
</g>
<g style="mix-blend-mode:color-dodge">
<circle cx="69.3241" cy="42.7038" r="1.94106" fill="#D9D9D9"/>
</g>
<circle cx="71.4145" cy="49.3103" r="4.99483" fill="#29262A"/>
<g filter="url(#filter4_i_678_4606)">
<path d="M60.9922 47.8815C60.8026 46.2036 60.9528 44.5048 61.434 42.8859C61.9152 41.2669 62.7176 39.7606 63.7936 38.4564C64.8695 37.1521 66.1972 36.0764 67.698 35.2929C69.1988 34.5095 70.842 34.0342 72.5305 33.8953C74.2189 33.7564 75.9181 33.9567 77.5275 34.4843C79.1368 35.0119 80.6235 35.8561 81.8995 36.9669C83.1755 38.0777 84.2148 39.4324 84.9558 40.9509C85.6968 42.4693 86.1245 44.1205 86.2135 45.8067L73.5718 46.4695L60.9922 47.8815Z" fill="url(#paint4_radial_678_4606)"/>
</g>
<path d="M66.0989 47.9971L66.5413 50.7873L69.4368 48.4834L66.0989 47.9971Z" fill="#FEFEFF"/>
</g>
<path d="M32.5762 37.5556C32.5762 37.5556 36.3879 29.5075 48.4138 32.1544C48.4138 32.1544 46.4804 30.9725 43.53 30.5055C39.0536 29.7968 34.8619 31.6809 33.3498 34.865C32.9514 35.6246 32.6682 36.5351 32.5762 37.5556Z" fill="#29262A"/>
<path d="M86.6615 37.5181C86.6615 37.5181 82.643 29.5712 70.6896 32.528C70.6896 32.528 72.5918 31.2966 75.5291 30.7534C79.9857 29.9293 84.2247 31.7045 85.8187 34.8484C86.2365 35.5974 86.5431 36.5004 86.6615 37.5181Z" fill="#29262A"/>
<path d="M65.3656 69.7908C65.3656 69.7908 58.7889 73.086 53.395 68.9053C53.395 68.9053 53.9193 70.4569 55.9069 71.5947C57.6846 72.6552 59.9153 72.8101 61.9087 72.1865C63.2726 71.7837 64.7525 71.0661 65.3656 69.7908Z" fill="#29262A"/>
<defs>
<filter id="filter0_dii_678_4606" x="0.739559" y="0.648251" width="117.758" height="117.758" filterUnits="userSpaceOnUse" color-interpolation-filters="sRGB">
<feFlood flood-opacity="0" result="BackgroundImageFix"/>
<feColorMatrix in="SourceAlpha" type="matrix" values="0 0 0 0 0 0 0 0 0 0 0 0 0 0 0 0 0 0 127 0" result="hardAlpha"/>
<feOffset/>
<feGaussianBlur stdDeviation="7.76425"/>
<feComposite in2="hardAlpha" operator="out"/>
<feColorMatrix type="matrix" values="0 0 0 0 1 0 0 0 0 0.696667 0 0 0 0 0.241667 0 0 0 0.7 0"/>
<feBlend mode="normal" in2="BackgroundImageFix" result="effect1_dropShadow_678_4606"/>
<feBlend mode="normal" in="SourceGraphic" in2="effect1_dropShadow_678_4606" result="shape"/>
<feColorMatrix in="SourceAlpha" type="matrix" values="0 0 0 0 0 0 0 0 0 0 0 0 0 0 0 0 0 0 127 0" result="hardAlpha"/>
<feOffset dx="-6.47021" dy="6.47021"/>
<feGaussianBlur stdDeviation="3.88213"/>
<feComposite in2="hardAlpha" operator="arithmetic" k2="-1" k3="1"/>
<feColorMatrix type="matrix" values="0 0 0 0 0.180392 0 0 0 0 0.164706 0 0 0 0 0.168627 0 0 0 1 0"/>
<feBlend mode="soft-light" in2="shape" result="effect2_innerShadow_678_4606"/>
<feColorMatrix in="SourceAlpha" type="matrix" values="0 0 0 0 0 0 0 0 0 0 0 0 0 0 0 0 0 0 127 0" result="hardAlpha"/>
<feOffset dx="-6.47021" dy="-11.6464"/>
<feGaussianBlur stdDeviation="3.88213"/>
<feComposite in2="hardAlpha" operator="arithmetic" k2="-1" k3="1"/>
<feColorMatrix type="matrix" values="0 0 0 0 0.8125 0 0 0 0 0.71236 0 0 0 0 0.639844 0 0 0 1 0"/>
<feBlend mode="hard-light" in2="effect2_innerShadow_678_4606" result="effect3_innerShadow_678_4606"/>
</filter>
<filter id="filter1_i_678_4606" x="33.0911" y="31.7059" width="26.5279" height="27.8219" filterUnits="userSpaceOnUse" color-interpolation-filters="sRGB">
<feFlood flood-opacity="0" result="BackgroundImageFix"/>
<feBlend mode="normal" in="SourceGraphic" in2="BackgroundImageFix" result="shape"/>
<feColorMatrix in="SourceAlpha" type="matrix" values="0 0 0 0 0 0 0 0 0 0 0 0 0 0 0 0 0 0 127 0" result="hardAlpha"/>
<feOffset dx="1.29404" dy="-2.58808"/>
<feGaussianBlur stdDeviation="1.29404"/>
<feComposite in2="hardAlpha" operator="arithmetic" k2="-1" k3="1"/>
<feColorMatrix type="matrix" values="0 0 0 0 0 0 0 0 0 0 0 0 0 0 0 0 0 0 0.1 0"/>
<feBlend mode="normal" in2="shape" result="effect1_innerShadow_678_4606"/>
</filter>
<filter id="filter2_i_678_4606" x="33.0237" y="31.7039" width="26.5948" height="16.6171" filterUnits="userSpaceOnUse" color-interpolation-filters="sRGB">
<feFlood flood-opacity="0" result="BackgroundImageFix"/>
<feBlend mode="normal" in="SourceGraphic" in2="BackgroundImageFix" result="shape"/>
<feColorMatrix in="SourceAlpha" type="matrix" values="0 0 0 0 0 0 0 0 0 0 0 0 0 0 0 0 0 0 127 0" result="hardAlpha"/>
<feOffset dx="1.29404" dy="-2.58808"/>
<feGaussianBlur stdDeviation="1.29404"/>
<feComposite in2="hardAlpha" operator="arithmetic" k2="-1" k3="1"/>
<feColorMatrix type="matrix" values="0 0 0 0 0 0 0 0 0 0 0 0 0 0 0 0 0 0 0.1 0"/>
<feBlend mode="normal" in2="shape" result="effect1_innerShadow_678_4606"/>
</filter>
<filter id="filter3_i_678_4606" x="59.6188" y="31.7059" width="26.5279" height="27.8219" filterUnits="userSpaceOnUse" color-interpolation-filters="sRGB">
<feFlood flood-opacity="0" result="BackgroundImageFix"/>
<feBlend mode="normal" in="SourceGraphic" in2="BackgroundImageFix" result="shape"/>
<feColorMatrix in="SourceAlpha" type="matrix" values="0 0 0 0 0 0 0 0 0 0 0 0 0 0 0 0 0 0 127 0" result="hardAlpha"/>
<feOffset dx="-1.29404" dy="-2.58808"/>
<feGaussianBlur stdDeviation="1.29404"/>
<feComposite in2="hardAlpha" operator="arithmetic" k2="-1" k3="1"/>
<feColorMatrix type="matrix" values="0 0 0 0 0 0 0 0 0 0 0 0 0 0 0 0 0 0 0.1 0"/>
<feBlend mode="normal" in2="shape" result="effect1_innerShadow_678_4606"/>
</filter>
<filter id="filter4_i_678_4606" x="60.9126" y="31.2645" width="26.5948" height="16.6171" filterUnits="userSpaceOnUse" color-interpolation-filters="sRGB">
<feFlood flood-opacity="0" result="BackgroundImageFix"/>
<feBlend mode="normal" in="SourceGraphic" in2="BackgroundImageFix" result="shape"/>
<feColorMatrix in="SourceAlpha" type="matrix" values="0 0 0 0 0 0 0 0 0 0 0 0 0 0 0 0 0 0 127 0" result="hardAlpha"/>
<feOffset dx="1.29404" dy="-2.58808"/>
<feGaussianBlur stdDeviation="1.29404"/>
<feComposite in2="hardAlpha" operator="arithmetic" k2="-1" k3="1"/>
<feColorMatrix type="matrix" values="0 0 0 0 0 0 0 0 0 0 0 0 0 0 0 0 0 0 0.1 0"/>
<feBlend mode="normal" in2="shape" result="effect1_innerShadow_678_4606"/>
</filter>
<radialGradient id="paint0_radial_678_4606" cx="0" cy="0" r="1" gradientUnits="userSpaceOnUse" gradientTransform="translate(59.6185 59.5272) rotate(90) scale(43.3504)">
<stop stop-color="#FFCC00"/>
<stop offset="1" stop-color="#F29418"/>
</radialGradient>
<radialGradient id="paint1_radial_678_4606" cx="0" cy="0" r="1" gradientUnits="userSpaceOnUse" gradientTransform="translate(45.708 46.9109) rotate(90) scale(12.6169)">
<stop offset="0.71875" stop-color="white"/>
<stop offset="1" stop-color="#DEF7FF"/>
</radialGradient>
<radialGradient id="paint2_radial_678_4606" cx="0" cy="0" r="1" gradientUnits="userSpaceOnUse" gradientTransform="translate(45.6653 46.9089) rotate(90) scale(12.6169 12.6591)">
<stop stop-color="#FEC603"/>
<stop offset="0.28125" stop-color="#F6A312"/>
</radialGradient>
<radialGradient id="paint3_radial_678_4606" cx="0" cy="0" r="1" gradientUnits="userSpaceOnUse" gradientTransform="translate(73.5298 46.9109) rotate(90) scale(12.6169)">
<stop offset="0.71875" stop-color="white"/>
<stop offset="1" stop-color="#DEF7FF"/>
</radialGradient>
<radialGradient id="paint4_radial_678_4606" cx="0" cy="0" r="1" gradientUnits="userSpaceOnUse" gradientTransform="translate(73.5718 46.4695) rotate(90) scale(12.6169 12.6591)">
<stop stop-color="#FEC603"/>
<stop offset="0.28125" stop-color="#F6A312"/>
</radialGradient>
</defs>
</svg>
